<?xml version="1.0" encoding="UTF-8" standalone="no"?><!DOCTYPE svg PUBLIC "-//W3C//DTD SVG 1.1//EN" "http://www.w3.org/Graphics/SVG/1.1/DTD/svg11.dtd"><svg width="100%" height="100%" viewBox="0 0 500 500" version="1.1" xmlns="http://www.w3.org/2000/svg" xmlns:xlink="http://www.w3.org/1999/xlink" xml:space="preserve" xmlns:serif="http://www.serif.com/" style="fill-rule:evenodd;clip-rule:evenodd;stroke-linejoin:round;stroke-miterlimit:1.41421;"><g id="Calque3"><circle cx="197.672" cy="230.312" r="195.237" style="fill:#c16ad7;"/><path d="M68.317,299.019c-3.964,-12.458 -6.104,-25.727 -6.104,-39.491c0,-71.896 58.37,-130.266 130.266,-130.266c52.825,0 98.347,31.51 118.781,76.744c9.898,-4.208 20.784,-6.536 32.209,-6.536c45.519,0 82.474,36.955 82.474,82.474c0,5.422 -0.525,10.723 -1.526,15.854l0.056,0c39.674,0.001 71.884,32.211 71.884,71.884c0,39.673 -32.21,71.882 -71.884,71.883l-342.91,0c-39.673,0 -71.883,-32.21 -71.883,-71.883c0,-35.149 25.282,-64.439 58.637,-70.663Z" style="fill:url(#_Linear1);"/></g><defs><linearGradient id="_Linear1" x1="0" y1="0" x2="1" y2="0" gradientUnits="userSpaceOnUse" gradientTransform="matrix(1.85055e-14,-302.217,302.217,1.85055e-14,238.419,439.645)"><stop offset="0" style="stop-color:#c16ad7;stop-opacity:1"/><stop offset="0.55" style="stop-color:#e5a4ef;stop-opacity:1"/><stop offset="1" style="stop-color:#f4bbf9;stop-opacity:1"/></linearGradient></defs></svg>