<?xml version="1.0" encoding="UTF-8" standalone="no"?><!DOCTYPE svg PUBLIC "-//W3C//DTD SVG 1.1//EN" "http://www.w3.org/Graphics/SVG/1.1/DTD/svg11.dtd"><svg width="100%" height="100%" viewBox="0 0 500 500" version="1.1" xmlns="http://www.w3.org/2000/svg" xmlns:xlink="http://www.w3.org/1999/xlink" xml:space="preserve" xmlns:serif="http://www.serif.com/" style="fill-rule:evenodd;clip-rule:evenodd;stroke-linejoin:round;stroke-miterlimit:1.41421;"><g id="Calque2"><path d="M77.505,175.791c-3.589,-11.278 -5.525,-23.29 -5.525,-35.75c0,-65.084 52.84,-117.924 117.924,-117.924c47.82,0 89.03,28.525 107.528,69.473c8.96,-3.809 18.814,-5.917 29.157,-5.917c41.206,0 74.66,33.454 74.66,74.66c0,4.909 -0.474,9.708 -1.381,14.353l0.051,0c35.915,0.001 65.073,29.159 65.073,65.073c0,35.915 -29.158,65.073 -65.073,65.073l-310.423,0c-35.914,0 -65.073,-29.158 -65.073,-65.073c0,-31.819 22.887,-58.334 53.082,-63.968Z" style="fill:url(#_Linear1);"/><path d="M114.553,321.033c0,0 -2.131,40.606 3.022,55.975c2.62,7.812 11.089,12.029 18.902,9.409c7.812,-2.62 12.028,-11.089 9.409,-18.902c-5.153,-15.368 -31.333,-46.482 -31.333,-46.482Z" style="fill:#68c4af;"/><path d="M233.282,321.033c0,0 -2.132,40.606 3.021,55.975c2.62,7.812 11.09,12.029 18.902,9.409c7.813,-2.62 12.029,-11.089 9.409,-18.902c-5.153,-15.368 -31.332,-46.482 -31.332,-46.482Z" style="fill:#68c4af;"/><path d="M352.721,321.033c0,0 -2.131,40.606 3.022,55.975c2.619,7.812 11.089,12.029 18.902,9.409c7.812,-2.62 12.028,-11.089 9.409,-18.902c-5.153,-15.368 -31.333,-46.482 -31.333,-46.482Z" style="fill:#68c4af;"/><path d="M180.672,397.104c0,0 -2.132,40.607 3.021,55.975c2.62,7.813 11.089,12.029 18.902,9.409c7.813,-2.619 12.029,-11.089 9.409,-18.901c-5.153,-15.369 -31.332,-46.483 -31.332,-46.483Z" style="fill:#f2af0d;"/><path d="M180.672,397.104c0,0 -2.132,40.607 3.021,55.975c2.62,7.813 11.089,12.029 18.902,9.409c7.813,-2.619 12.029,-11.089 9.409,-18.901c-5.153,-15.369 -31.332,-46.483 -31.332,-46.483Z" style="fill:#68c4af;"/><path d="M303.666,397.104c0,0 -2.132,40.607 3.021,55.975c2.62,7.813 11.09,12.029 18.902,9.409c7.813,-2.619 12.029,-11.089 9.409,-18.901c-5.153,-15.369 -31.332,-46.483 -31.332,-46.483Z" style="fill:#68c4af;"/></g><defs><linearGradient id="_Linear1" x1="0" y1="0" x2="1" y2="0" gradientUnits="userSpaceOnUse" gradientTransform="matrix(1.71274e-14,279.712,-279.712,1.71274e-14,229.799,25.8257)"><stop offset="0" style="stop-color:#96ead7;stop-opacity:1"/><stop offset="1" style="stop-color:#68c4af;stop-opacity:1"/></linearGradient></defs></svg>